<svg class="chart linechart linechart--simple" width="982" height="350"><g transform="translate(80,10)"><g class="axis axis--x" transform="translate(0,320)" fill="none" font-size="10" font-family="sans-serif" text-anchor="middle"><path class="domain" stroke="#000" d="M0.5,6V0.5H892.5V6"></path><g class="tick" opacity="1" transform="translate(0.5,0)"><line stroke="#000" y2="6"></line><text fill="#000" y="9" dy="0.71em">2001</text></g><g class="tick" opacity="1" transform="translate(64.5,0)"><line stroke="#000" y2="6"></line><text fill="#000" y="9" dy="0.71em">2002</text></g><g class="tick" opacity="1" transform="translate(127.5,0)"><line stroke="#000" y2="6"></line><text fill="#000" y="9" dy="0.71em">2003</text></g><g class="tick" opacity="1" transform="translate(191.5,0)"><line stroke="#000" y2="6"></line><text fill="#000" y="9" dy="0.71em">2004</text></g><g class="tick" opacity="1" transform="translate(255.5,0)"><line stroke="#000" y2="6"></line><text fill="#000" y="9" dy="0.71em">2005</text></g><g class="tick" opacity="1" transform="translate(319.5,0)"><line stroke="#000" y2="6"></line><text fill="#000" y="9" dy="0.71em">2006</text></g><g class="tick" opacity="1" transform="translate(382.5,0)"><line stroke="#000" y2="6"></line><text fill="#000" y="9" dy="0.71em">2007</text></g><g class="tick" opacity="1" transform="translate(446.5,0)"><line stroke="#000" y2="6"></line><text fill="#000" y="9" dy="0.71em">2008</text></g><g class="tick" opacity="1" transform="translate(510.5,0)"><line stroke="#000" y2="6"></line><text fill="#000" y="9" dy="0.71em">2009</text></g><g class="tick" opacity="1" transform="translate(573.5,0)"><line stroke="#000" y2="6"></line><text fill="#000" y="9" dy="0.71em">2010</text></g><g class="tick" opacity="1" transform="translate(637.5,0)"><line stroke="#000" y2="6"></line><text fill="#000" y="9" dy="0.71em">2011</text></g><g class="tick" opacity="1" transform="translate(701.5,0)"><line stroke="#000" y2="6"></line><text fill="#000" y="9" dy="0.71em">2012</text></g><g class="tick" opacity="1" transform="translate(765.5,0)"><line stroke="#000" y2="6"></line><text fill="#000" y="9" dy="0.71em">2013</text></g><g class="tick" opacity="1" transform="translate(828.5,0)"><line stroke="#000" y2="6"></line><text fill="#000" y="9" dy="0.71em">2014</text></g><g class="tick" opacity="1" transform="translate(892.5,0)"><line stroke="#000" y2="6"></line><text fill="#000" y="9" dy="0.71em">2015</text></g></g><g class="axis axis--y" fill="none" font-size="10" font-family="sans-serif" text-anchor="end"><path class="domain" stroke="#000" d="M-6,320.5H0.5V0.5H-6"></path><g class="tick" opacity="1" transform="translate(0,320.5)"><line stroke="#000" x2="-6"></line><text fill="#000" x="-9" dy="0.32em">0</text></g><g class="tick" opacity="1" transform="translate(0,297.5)"><line stroke="#000" x2="-6"></line><text fill="#000" x="-9" dy="0.32em">200</text></g><g class="tick" opacity="1" transform="translate(0,274.5)"><line stroke="#000" x2="-6"></line><text fill="#000" x="-9" dy="0.32em">400</text></g><g class="tick" opacity="1" transform="translate(0,251.5)"><line stroke="#000" x2="-6"></line><text fill="#000" x="-9" dy="0.32em">600</text></g><g class="tick" opacity="1" transform="translate(0,228.5)"><line stroke="#000" x2="-6"></line><text fill="#000" x="-9" dy="0.32em">800</text></g><g class="tick" opacity="1" transform="translate(0,205.5)"><line stroke="#000" x2="-6"></line><text fill="#000" x="-9" dy="0.32em">1,000</text></g><g class="tick" opacity="1" transform="translate(0,182.5)"><line stroke="#000" x2="-6"></line><text fill="#000" x="-9" dy="0.32em">1,200</text></g><g class="tick" opacity="1" transform="translate(0,159.5)"><line stroke="#000" x2="-6"></line><text fill="#000" x="-9" dy="0.32em">1,400</text></g><g class="tick" opacity="1" transform="translate(0,135.5)"><line stroke="#000" x2="-6"></line><text fill="#000" x="-9" dy="0.32em">1,600</text></g><g class="tick" opacity="1" transform="translate(0,112.5)"><line stroke="#000" x2="-6"></line><text fill="#000" x="-9" dy="0.32em">1,800</text></g><g class="tick" opacity="1" transform="translate(0,89.5)"><line stroke="#000" x2="-6"></line><text fill="#000" x="-9" dy="0.32em">2,000</text></g><g class="tick" opacity="1" transform="translate(0,66.5)"><line stroke="#000" x2="-6"></line><text fill="#000" x="-9" dy="0.32em">2,200</text></g><g class="tick" opacity="1" transform="translate(0,43.5)"><line stroke="#000" x2="-6"></line><text fill="#000" x="-9" dy="0.32em">2,400</text></g><g class="tick" opacity="1" transform="translate(0,20.5)"><line stroke="#000" x2="-6"></line><text fill="#000" x="-9" dy="0.32em">2,600</text></g></g><g class="lineg"><path class="line" style="stroke: red;" d="M0,320L10.666666666666666,315.8333333333333C21.333333333333332,311.6666666666667,42.666666666666664,303.3333333333333,63.833333333333336,299.8333333333333C85,296.3333333333333,106,297.6666666666667,127.16666666666667,290.6666666666667C148.33333333333334,283.6666666666667,169.66666666666666,268.3333333333333,191,265.1666666666667C212.33333333333334,262,233.66666666666666,271,255,271.5C276.3333333333333,272,297.6666666666667,264,318.8333333333333,254.66666666666666C340,245.33333333333334,361,234.66666666666666,382.1666666666667,236.66666666666666C403.3333333333333,238.66666666666666,424.6666666666667,253.33333333333334,446,262.3333333333333C467.3333333333333,271.3333333333333,488.6666666666667,274.6666666666667,509.8333333333333,276.5C531,278.3333333333333,552,278.6666666666667,573.1666666666666,281.3333333333333C594.3333333333334,284,615.6666666666666,289,637,276.1666666666667C658.3333333333334,263.3333333333333,679.6666666666666,232.66666666666666,701,197.66666666666666C722.3333333333334,162.66666666666666,743.6666666666666,123.33333333333333,764.8333333333334,89.66666666666667C786,56,807,28,828.1666666666666,14.5C849.3333333333334,1,870.6666666666666,2,881.3333333333334,2.5L892,3"></path></g><g class="lineg"><path class="line" style="stroke: blue;" d="M0,320L10.666666666666666,319.5C21.333333333333332,319,42.666666666666664,318,63.833333333333336,317.5C85,317,106,317,127.16666666666667,317C148.33333333333334,317,169.66666666666666,317,191,311.1666666666667C212.33333333333334,305.3333333333333,233.66666666666666,293.6666666666667,255,292.8333333333333C276.3333333333333,292,297.6666666666667,302,318.8333333333333,306.1666666666667C340,310.3333333333333,361,308.6666666666667,382.1666666666667,308.8333333333333C403.3333333333333,309,424.6666666666667,311,446,310.5C467.3333333333333,310,488.6666666666667,307,509.8333333333333,306.8333333333333C531,306.6666666666667,552,309.3333333333333,573.1666666666666,286C594.3333333333334,262.6666666666667,615.6666666666666,213.33333333333334,637,210C658.3333333333334,206.66666666666666,679.6666666666666,249.33333333333334,701,271.6666666666667C722.3333333333334,294,743.6666666666666,296,764.8333333333334,296.8333333333333C786,297.6666666666667,807,297.3333333333333,828.1666666666666,298C849.3333333333334,298.6666666666667,870.6666666666666,300.3333333333333,881.3333333333334,301.1666666666667L892,302"></path></g></g></svg>